
<svg xmlns="http://www.w3.org/2000/svg" version="1.1" xmlns:xlink="http://www.w3.org/1999/xlink" preserveAspectRatio="none" x="0px" y="0px" width="300px" height="331px" viewBox="0 0 300 331">
<defs>
<g id="mcLogoWhite_0_Layer0_0_MEMBER_0_FILL">
<path fill="#FFFFFF" stroke="none" d="
M 291.05 337.55
L 292.25 336.9 292.65 334.6 289.25 334
Q 289.8 336.05 291.05 337.55
M 289.8 333.15
L 289.6 333.2 292.45 333.75 292.45 333.6 289.8 333.15
M 294.2 332.65
L 294.25 332.65
Q 293.75 330.9 294.6 329.3 295.45 327.65 297.15 327 299 326.3 300.8 327.1 302.6 327.9 303.25 329.75 303.95 331.6 303.15 333.4 302.35 335.2 300.5 335.85 298.9 336.45 297.3 335.9 295.7 335.35 294.8 333.95
L 294.55 335.35
Q 295.75 336.65 297.45 337.05 299.2 337.5 300.85 336.85 303.1 336 304.1 333.8 305.1 331.65 304.25 329.4 303.4 327.15 301.25 326.15 299.05 325.15 296.8 326 294.8 326.75 293.75 328.6 292.7 330.4 293.1 332.45
L 294.2 332.65
M 293.85 326.85
Q 295.75 324.75 298.55 324.65 301.35 324.55 303.4 326.45 305.45 328.35 305.6 331.15 305.7 333.95 303.8 336 301.9 338.05 299.1 338.15 296.4 338.3 294.35 336.5
L 293.75 339.9
Q 295.55 341 297.7 341.25
L 298.1 339.7 300.25 339.65 300.8 341.1
Q 303.15 340.65 305 339.15
L 304.2 337.8 305.65 336.2 307.05 336.9
Q 308.4 334.85 308.65 332.55
L 307.15 332.15 307.05 330 308.55 329.45
Q 308.1 327.1 306.6 325.25
L 305.2 326.05 303.6 324.6 304.3 323.15
Q 302.2 321.8 299.95 321.6
L 299.55 323.1 297.4 323.2 296.85 321.7
Q 294.6 322.15 292.65 323.65
L 293.5 325 292 326.6 290.6 325.95
Q 289.25 327.95 289 330.3
L 290.5 330.7 290.6 332 292.1 332.3 292.05 331.7
Q 291.95 328.9 293.85 326.85 Z"/>
</g>

<g id="mcLogoWhite_0_Layer0_0_MEMBER_1_FILL">
<path fill="#FFFFFF" stroke="none" d="
M 270.1 329.75
Q 268.05 329.75 265.8 329.35
L 265.65 333
Q 271.75 334.05 277.55 332.3
L 276.95 328.65
Q 273.55 329.75 270.1 329.75
M 249.25 322.5
Q 252.75 327.55 258.15 330.4
L 260.3 327.45
Q 255.1 324.75 251.95 320
L 249.25 322.5
M 248.75 303.65
L 245.1 303.5
Q 244 309.45 245.8 315.35
L 249.4 314.8
Q 248.3 311.4 248.3 307.95 248.3 305.75 248.75 303.65
M 291.9 307.95
Q 291.9 310.1 291.5 312.25
L 295.15 312.4
Q 296.2 306.3 294.45 300.55
L 290.8 301.1
Q 291.9 304.5 291.9 307.95
M 292.55 319.9
L 289.6 317.75
Q 287.1 322.8 282.2 326.1
L 284.7 328.8
Q 289.8 325.25 292.55 319.9
M 282.05 285.5
L 279.9 288.5
Q 285.15 291.1 288.25 295.9
L 290.95 293.4
Q 287.5 288.4 282.05 285.5
M 255.55 287.1
Q 250.6 290.6 247.65 296
L 250.65 298.15
Q 253.25 293 258.05 289.8
L 255.55 287.1
M 274.4 286.6
L 274.55 282.95
Q 268.6 281.85 262.7 283.65
L 263.25 287.25
Q 266.7 286.15 270.1 286.15 272.4 286.15 274.4 286.6 Z"/>
</g>

<g id="mcLogoWhite_0_Layer0_0_MEMBER_2_FILL">
<path fill="#FFFFFF" stroke="none" d="
M 270.1 287.25
Q 261.55 287.25 255.5 293.35 249.45 299.4 249.45 307.95 249.45 313.7 252.35 318.6 255.2 323.35 260.05 326.05
L 260.1 326.05
Q 260.9748046875 325.9931640625 261.85 325.75
L 262.2 326.4 261.6 326.8 262.1 327.05 262.45 326.75 262.9 327.35 262.45 327.2
Q 264.7541015625 328.0294921875 266.8 328.4 267.25 327.2 268.1 325.95
L 268.85 324.95
Q 271.15 325.35 273.25 324.65
L 274.2 325.55
Q 275.3 326.7 275.9 327.8
L 275.65 327.9
Q 282.3 326.1 286.5 320.6 290.8 315 290.8 307.95 290.8 299.4 284.75 293.35 278.7 287.25 270.1 287.25
M 260.65 293.2
Q 258.95 294.35 257.75 295.6 255.3 298 254 301.15 252.6 304.4 252.6 307.95 252.6 311.55 254 314.8 255.3 317.95 257.75 320.35
L 259.05 321.55
Q 258.8 322.45 258.85 323.5 257.85 322.85 256.55 321.55 253.9 318.9 252.4 315.45 250.9 311.85 250.9 307.95 250.9 304.05 252.4 300.5 253.9 297.05 256.55 294.35 258.5 292.4 260.7 291.2 260.45 291.8 260.45 292.25 260.45 292.7 260.65 293.2
M 261.4 293.2
Q 261 292.55 261.2 291.75 261.35 291 262 290.6 262.65 290.25 263.45 290.4 264.2 290.6 264.6 291.25 264.95 291.8 264.85 292.45 264.75 293.1 264.35 293.5
L 265.1 294.8
Q 266.2 294.15 267.75 293.85 271.55 293.1 274.8 295.3 278 297.45 278.7 301.25 279.45 305 277.35 308.15 276.65 309.25 275.45 310.3
L 274.35 311.05
Q 271.15 313 267.5 312.2 263.85 311.4 261.8 308.3
L 261.3 307.5
Q 260.7 306.4 260.35 304.8 259.8 302 260.9 299.4 261.95 296.85 264.25 295.3
L 263.5 294
Q 262.15 294.45 261.4 293.2
M 265.2 291.15
Q 264.6 290.15 263.65 289.85 266.8 288.75 270.1 288.75 278 288.75 283.7 294.35 286.4 297.05 287.85 300.5 289.35 304.05 289.35 307.95 289.35 309.7 289.05 311.35 288.35 309.3 287.65 308.1
L 287.65 307.95
Q 287.65 304.4 286.25 301.15 284.9 298 282.5 295.6 280.1 293.15 276.95 291.85 273.7 290.45 270.1 290.45 267.6 290.45 265.2 291.15
M 285.3 303
Q 285.55 302.8 285.75 302.95 286 303.15 286.2 303.75 286.5 304.5 286.35 305.3 286.7 305.85 286.7 306.35 286.75 306.95 286.5 307.55
L 286.45 307.45 284.65 308.7 284.7 308.75 284.65 308.75
Q 283.35 308.9 282.6 307.8 281.95 307.55 281.45 307.05 281.05 306.6 281 306.35 280.9 306.1 281.2 306 281.5 305.9 281.75 306.2 281.9 306.6 282.25 306.75
L 282.25 306.7
Q 282.2 305.85 282.75 305.1 282.15 304.9 281.75 305 281.35 305 281.3 304.7 281.2 304.4 281.45 304.3 281.65 304.2 282.15 304.25 282.8 304.25 283.35 304.6
L 283.6 304.45
Q 282.9 303.75 282.1 303.8 281.7 303.75 281.7 303.45 281.65 303.15 281.9 303.05 282.2 302.9 282.95 303.15 283.9 303.5 284.4 304.3
L 284.65 304.3
Q 284.25 303.4 283.5 303.15 283.15 303 283.25 302.65 283.3 302.35 283.55 302.4 283.95 302.4 284.55 302.9 285.3 303.55 285.5 304.5
L 285.65 304.6
Q 285.65 304.05 285.3 303.55 285.1 303.25 285.3 303
M 286.6 307.75
L 287.1 308.5
Q 286.1 308.9 285.2 309.55
L 284.85 309 286.6 307.75
M 286.25 312.45
Q 287.3 312.25 288.5 312.25 288.6 313 288.5 313.85 287.5 313.45 286.35 313.35
L 286.25 312.45
M 288.1 310.5
L 288.45 311.8
Q 287.25 311.7 286.2 312
L 285.95 311.15
Q 286.95 310.65 288.1 310.5
M 285.75 310.7
L 285.45 310
Q 286.25 309.3 287.35 308.9 287.7 309.4 287.9 310.05 287 310.15 285.75 310.7
M 286.35 313.8
Q 287.6 313.95 288.45 314.3
L 288 315.85
Q 287.2 315.15 286.15 314.6
L 286.35 313.8
M 284.2 317.15
Q 284.7 318.2 284.85 319.5 283.95 320.05 282.9 320.3 283.2 319 283.05 317.7 283.75 317.45 284.2 317.15
M 286.6 318
Q 286 318.65 285.25 319.25 285.1 317.9 284.6 316.85
L 285.25 316.2
Q 286.1 317.05 286.6 318
M 286.95 317.6
L 286.9 317.65
Q 286.45 316.7 285.6 315.8
L 286 315.05
Q 286.85 315.5 287.8 316.25 287.3 317.15 286.95 317.6
M 268.75 312.75
Q 270.15 312.9 271.55 312.6
L 271.7 314.4 268.9 314.6 268.75 312.75
M 266.95 315.3
Q 267.6 315.15 268.15 315.05
L 272.5 314.7 273.7 314.8
Q 275 315 275.35 315.55 275.95 316.45 272.9 319.85 270.6 320.6 268.5 320.15 265 317.25 265.45 316.3 265.75 315.7 266.95 315.3
M 265.1 317.3
Q 265.35 317.75 265.7 318.05
L 260.95 318.4
Q 260.75 317.6 263.05 316.55 265 315.65 265.55 315.65 265.2 315.9 264.95 316.35 264.8 316.7 265.1 317.3
M 266.9 319.5
Q 264.3 319.8 263.85 320 263.15 319.3 262.75 318.65
L 266 318.4 266.9 319.5
M 268.55 320.85
Q 270.85 321.15 272.95 320.5
L 273.2 324
Q 271.1 324.7 268.8 324.3
L 268.55 320.85
M 275.1 314.9
Q 275.6 314.8 277.7 315.45 280.1 316.15 280.05 317
L 275.25 317.35
Q 275.6 316.95 275.75 316.45 276 315.85 275.75 315.5 275.5 315.1 275.1 314.9
M 277.55 320
Q 277.9 319.3 278.2 317.5
L 279.75 317.4 280.4 317.65
Q 280.5 319.25 280.05 320.45 278.95 320.35 277.55 320
M 275.1 317.75
L 277.7 317.55
Q 277.6 318.7 277.05 319.9 275.15 319.3 274.35 318.85
L 275.1 317.75
M 282.45 320.4
Q 281.55 320.6 280.55 320.5 280.9 319.3 280.9 317.8 281.75 318 282.6 317.8 282.75 318.95 282.45 320.4
M 260.75 319.4
L 261.25 318.8 262.25 318.7
Q 262.9 319.7 263.45 320.2 262.7 320.7 262.25 321.3 261.15 320.2 260.75 319.4
M 259.65 321.55
Q 259.9 320.75 260.45 319.8 261.1 320.85 262 321.65
L 261.6 322.75
Q 260.5 322.3 259.65 321.55
M 261.5 323.2
L 261.5 324.1
Q 260.4 324.05 259.4 323.65 259.4 322.75 259.55 322 260.45 322.75 261.5 323.2
M 259.45 324.2
L 259.45 324.15
Q 260.5 324.5 261.5 324.55
L 261.7 325.3
Q 260.65 325.6 259.7 325.6
L 259.45 324.2 Z"/>
</g>

<g id="mcLogoWhite_0_Layer0_0_MEMBER_3_FILL">
<path fill="#FFFFFF" stroke="none" d="
M 266.1 360.85
L 266.1 356.55 253.1 356.55 253.1 360.85 257.45 360.85 257.45 373.1 261.75 373.1 261.75 360.85 266.1 360.85
M 226.9 357.95
L 225.2 357
Q 224.7 356.55 223.3 356.55
L 214.85 356.55 214.85 373.1 223.3 373.1 225.2 372.65 226.9 371.7 228.1 370 228.55 367.85
Q 228.55 366.65 227.6 364.7 228.55 363.25 228.55 361.8
L 228.1 359.65 226.9 357.95
M 223.3 360.85
L 223.75 361.1 224 361.8 223.75 362.3 223.3 362.55 220.65 362.55 220.65 367.1 223.3 367.1 223.75 367.35 224 367.85 223.75 368.55 223.3 368.8 219.2 368.8 219.2 360.85 223.3 360.85
M 236.5 357.25
L 234.6 358.7 233.4 360.35 232.4 362.55 232.2 364.7 232.4 367.1 233.4 369.25 234.6 370.95 236.5 372.4 238.45 373.1 240.85 373.6 243.25 373.1 245.15 372.4 247.1 370.95 248.3 369.25 249.25 367.1 249.5 364.7 249.25 362.55 248.3 360.35 247.1 358.7 245.15 357.25
Q 243.75 356.55 243.25 356.55
L 240.85 356.05 238.45 356.55
Q 237.95 356.55 236.5 357.25
M 239.15 360.85
L 240.85 360.6
Q 242.75 360.6 243.95 361.8 245.15 363 245.15 364.7
L 244.7 366.4 243.95 367.85 242.5 368.8 240.85 369.05 239.15 368.8 237.95 367.85 237 366.4 236.5 364.7 237 363.25 237.95 361.8 239.15 360.85
M 187.2 358.45
Q 185.5 356.55 182.65 356.55
L 175.4 356.55 175.4 373.1 179.75 373.1 179.75 369.5 182.4 369.5 186.95 374.1 190.1 370.95 186.95 367.85 187.2 367.6
Q 189.15 365.65 189.15 363 189.15 360.35 187.2 358.45
M 182.65 360.85
L 183.35 361.1 184.1 361.6 184.55 362.3 184.8 363 184.55 363.75 184.1 364.45 183.35 364.95 182.65 365.2 179.75 365.2 179.75 360.85 182.65 360.85
M 198.05 357.25
L 196.1 358.7 194.9 360.35 193.95 362.55 193.7 364.7 193.95 367.1 194.9 369.25 196.1 370.95 198.05 372.4 199.95 373.1 202.35 373.6 204.75 373.1 206.7 372.4 208.6 370.95 209.8 369.25 210.8 367.1 211 364.7 210.8 362.55 209.8 360.35 208.6 358.7 206.7 357.25
Q 205.25 356.55 204.75 356.55
L 202.35 356.05 199.95 356.55
Q 199.45 356.55 198.05 357.25
M 200.65 360.85
L 202.35 360.6
Q 204.3 360.6 205.5 361.8 206.7 363 206.7 364.7
L 206.2 366.4 205.5 367.85 204.05 368.8 202.35 369.05 200.65 368.8 199.25 367.85 198.5 366.4 198.05 364.7 198.5 363.25 199.25 361.8 200.65 360.85
M 135 356.55
L 130.7 356.55 130.7 373.1 135 373.1 135 367.1 140.3 367.1 140.3 373.1 144.85 373.1 144.85 356.55 140.3 356.55 140.3 362.55 135 362.55 135 356.55
M 153.3 368.8
L 153.3 367.1 156.9 367.1 156.9 362.55 153.3 362.55 153.3 360.85 161.25 360.85 161.25 356.55 148.7 356.55 148.7 373.1 161.25 373.1 161.25 368.8 153.3 368.8
M 113.85 356.55
L 113.85 360.85 118.2 360.85 118.2 373.1 122.5 373.1 122.5 360.85 126.85 360.85 126.85 356.55 113.85 356.55 Z"/>
</g>

<g id="mcLogoWhite_0_Layer0_0_MEMBER_4_FILL">
<path fill="#FFFFFF" stroke="none" d="
M 298.15 342.2
L 298.35 343 297.3 343.55 296.7 342.95
Q 295.7 343.75 295.1 344.9
L 295.8 345.35 295.45 346.5 294.6 346.5
Q 294.45 347.75 294.85 348.95
L 295.7 348.8 296.25 349.85 295.65 350.45
Q 296.45 351.5 297.55 352
L 298.05 351.3 299.15 351.65 299.15 352.5
Q 300.55 352.65 301.65 352.25
L 301.45 351.45 302.5 350.9 303.1 351.5
Q 304.1 350.7 304.7 349.55
L 304 349.1 304.3 347.95 305.15 347.95
Q 305.35 346.75 304.95 345.5
L 304.1 345.65 303.55 344.6 304.15 344
Q 303.35 342.95 302.25 342.45
L 301.75 343.15 300.65 342.8 300.65 341.95
Q 299.25 341.8 298.15 342.2
M 296.4 346.15
Q 296.85 344.7 298.2 344 299.5 343.3 300.95 343.75 302.4 344.2 303.1 345.5 303.8 346.85 303.4 348.3 302.95 349.75 301.6 350.45 300.3 351.15 298.85 350.7 297.4 350.25 296.7 348.95 296 347.6 296.4 346.15
M 302.05 344.95
Q 301.1 344.1 299.85 344.1 298.55 344.1 297.65 345.05 296.75 346 296.8 347.3 296.8 348.6 297.75 349.5 298.7 350.35 299.95 350.35 301.25 350.35 302.15 349.4 303.05 348.45 303 347.15 303 345.85 302.05 344.95
M 299.85 344.7
Q 300.9 344.65 301.65 345.4 302.45 346.1 302.45 347.2 302.45 348.25 301.75 349 301 349.75 299.95 349.8 298.9 349.8 298.15 349.05 297.35 348.35 297.35 347.25 297.35 346.2 298.05 345.45 298.8 344.7 299.85 344.7 Z"/>
</g>

<g id="mcLogoWhite_0_Layer0_0_MEMBER_5_FILL">
<path fill="#FFFFFF" stroke="none" d="
M 265.25 349.05
Q 265.95 348.9 269.5 347.8
L 271.7 350.1 274.95 347.05 263.15 334.7 260.35 351.55 264.75 352.25 265.25 349.05
M 266.1 344.2
L 268.05 346.25 265.6 347.05 266.1 344.2 Z"/>
</g>

<g id="mcLogoWhite_0_Layer0_0_MEMBER_6_FILL">
<path fill="#FFFFFF" stroke="none" d="
M 293.9 333.65
L 287.55 332.5 284 351.95 290.35 353.1 293.9 333.65 Z"/>
</g>

<g id="mcLogoWhite_0_Layer0_0_MEMBER_7_FILL">
<path fill="#FFFFFF" stroke="none" d="
M 282.55 336.05
L 278.25 339.9 275.6 334.75 271.55 336.85 274.7 343.1 269.5 347.8 272.55 351.15 276.85 347.3 279.45 352.45 283.55 350.4 280.35 344.15 285.6 339.5 282.55 336.05 Z"/>
</g>

<g id="mcLogoWhite_0_Layer0_0_MEMBER_8_FILL">
<path fill="#FFFFFF" stroke="none" d="
M 252.85 344.7
L 246.45 343.65
Q 246.2 345.4 246.55 346.7 246.85 348.2 247.6 349.4 248.3 350.5 249.5 351.4 250.7 352.25 252.1 352.45 253.45 352.65 254.85 352.35 256.2 351.95 257.3 351.25 258.35 350.45 259.1 349.3 259.9 348.05 260.1 346.7
L 262.2 333.65 255.85 332.6 253.7 345.65
Q 253.7 345.85 253.5 346 253.3 346.1 253.15 346.05 252.95 346.05 252.85 345.65 252.75 345.25 252.85 344.7 Z"/>
</g>

<g id="mcLogoWhite_0_Layer0_0_MEMBER_9_FILL">
<path fill="#FFFFFF" stroke="none" d="
M 242.1 332.35
L 241.1 331.95
Q 240.25 333.4 240.25 335
L 241.3 335.2 241.45 336.65 240.45 337.05
Q 240.95 338.65 242 339.8
L 242.85 339.2 244 340.15 243.6 341.15
Q 245.05 341.95 246.65 342
L 246.85 340.95 248.3 340.75 248.7 341.75
Q 250.15 341.4 251.45 340.25
L 250.85 339.35 251.8 338.2 252.8 338.6
Q 253.6 337.15 253.65 335.6
L 252.6 335.4 252.4 333.9 253.4 333.5
Q 253.05 332.05 251.9 330.75
L 251 331.35 249.85 330.45 250.25 329.45
Q 248.85 328.65 247.25 328.55
L 247.05 329.65 245.55 329.8 245.15 328.8
Q 243.55 329.3 242.4 330.35
L 243 331.2 242.1 332.35
M 243.35 332.45
Q 244.55 330.95 246.4 330.75 248.3 330.55 249.8 331.7 251.3 332.85 251.5 334.75 251.75 336.65 250.55 338.15 249.35 339.65 247.45 339.85 245.55 340.05 244.1 338.85 242.6 337.65 242.4 335.8 242.2 333.9 243.35 332.45
M 245.3 331.7
Q 243.8 332.35 243.25 333.9 242.65 335.45 243.35 336.9 244 338.4 245.55 338.95 247.1 339.55 248.6 338.85 250.05 338.2 250.6 336.65 251.2 335.1 250.5 333.65 249.85 332.15 248.3 331.6 246.75 331 245.3 331.7
M 245.6 332.35
Q 246.8 331.8 248.05 332.25 249.3 332.75 249.85 333.95 250.4 335.15 249.95 336.4 249.5 337.65 248.3 338.2 247.05 338.75 245.8 338.3 244.55 337.85 244 336.6 243.45 335.4 243.9 334.15 244.4 332.9 245.6 332.35 Z"/>
</g>

<g id="mcLogoWhite_0_Layer0_0_MEMBER_10_FILL">
<path fill="#FFFFFF" stroke="none" d="
M 245.6 356.05
L 245.6 356.6 251.2 356.6 251.2 356.05 245.6 356.05 Z"/>
</g>

<g id="mcLogoWhite_0_Layer0_0_MEMBER_11_FILL">
<path fill="#FFFFFF" stroke="none" d="
M 289.05 356.05
L 289.05 356.6 294.65 356.6 294.65 356.05 289.05 356.05 Z"/>
</g>
</defs>

<g transform="matrix( 0.911712646484375, 0, 0, 0.91168212890625, 0,0) ">
<g transform="matrix( 4.81024169921875, 0, 0, 4.81024169921875, -1155.65,-1359.05) ">
<use xlink:href="#mcLogoWhite_0_Layer0_0_MEMBER_0_FILL"/>
</g>

<g transform="matrix( 4.81024169921875, 0, 0, 4.81024169921875, -1155.65,-1359.05) ">
<use xlink:href="#mcLogoWhite_0_Layer0_0_MEMBER_1_FILL"/>
</g>

<g transform="matrix( 4.81024169921875, 0, 0, 4.81024169921875, -1155.65,-1359.05) ">
<use xlink:href="#mcLogoWhite_0_Layer0_0_MEMBER_2_FILL"/>
</g>

<g transform="matrix( 1, 0, 0, 1, -46.25,-10.1) ">
<use xlink:href="#mcLogoWhite_0_Layer0_0_MEMBER_3_FILL"/>
</g>

<g transform="matrix( 4.81024169921875, 0, 0, 4.81024169921875, -1155.65,-1359.05) ">
<use xlink:href="#mcLogoWhite_0_Layer0_0_MEMBER_4_FILL"/>
</g>

<g transform="matrix( 4.81024169921875, 0, 0, 4.81024169921875, -1155.65,-1359.05) ">
<use xlink:href="#mcLogoWhite_0_Layer0_0_MEMBER_5_FILL"/>
</g>

<g transform="matrix( 4.81024169921875, 0, 0, 4.81024169921875, -1155.65,-1359.05) ">
<use xlink:href="#mcLogoWhite_0_Layer0_0_MEMBER_6_FILL"/>
</g>

<g transform="matrix( 4.81024169921875, 0, 0, 4.81024169921875, -1155.65,-1359.05) ">
<use xlink:href="#mcLogoWhite_0_Layer0_0_MEMBER_7_FILL"/>
</g>

<g transform="matrix( 4.81024169921875, 0, 0, 4.81024169921875, -1155.65,-1359.05) ">
<use xlink:href="#mcLogoWhite_0_Layer0_0_MEMBER_8_FILL"/>
</g>

<g transform="matrix( 4.81024169921875, 0, 0, 4.81024169921875, -1155.65,-1359.05) ">
<use xlink:href="#mcLogoWhite_0_Layer0_0_MEMBER_9_FILL"/>
</g>

<g transform="matrix( 4.81024169921875, 0, 0, 4.81024169921875, -1155.65,-1359.05) ">
<use xlink:href="#mcLogoWhite_0_Layer0_0_MEMBER_10_FILL"/>
</g>

<g transform="matrix( 4.81024169921875, 0, 0, 4.81024169921875, -1155.65,-1359.05) ">
<use xlink:href="#mcLogoWhite_0_Layer0_0_MEMBER_11_FILL"/>
</g>
</g>
</svg>
