
<svg xmlns="http://www.w3.org/2000/svg" version="1.1" xmlns:xlink="http://www.w3.org/1999/xlink" preserveAspectRatio="none" x="0px" y="0px" width="329px" height="151px" viewBox="0 0 329 151">
<defs>
<g id="mcLogoText_0_Layer0_0_MEMBER_0_FILL">
<path fill="#FFFFFF" stroke="none" d="
M 291.05 337.55
L 292.25 336.9 292.65 334.6 289.25 334
Q 289.8 336.05 291.05 337.55
M 289.8 333.15
L 289.6 333.2 292.45 333.75 292.45 333.6 289.8 333.15
M 294.2 332.65
L 294.25 332.65
Q 293.75 330.9 294.6 329.3 295.45 327.65 297.15 327 299 326.3 300.8 327.1 302.6 327.9 303.25 329.75 303.95 331.6 303.15 333.4 302.35 335.2 300.5 335.85 298.9 336.45 297.3 335.9 295.7 335.35 294.8 333.95
L 294.55 335.35
Q 295.75 336.65 297.45 337.05 299.2 337.5 300.85 336.85 303.1 336 304.1 333.8 305.1 331.65 304.25 329.4 303.4 327.15 301.25 326.15 299.05 325.15 296.8 326 294.8 326.75 293.75 328.6 292.7 330.4 293.1 332.45
L 294.2 332.65
M 293.85 326.85
Q 295.75 324.75 298.55 324.65 301.35 324.55 303.4 326.45 305.45 328.35 305.6 331.15 305.7 333.95 303.8 336 301.9 338.05 299.1 338.15 296.4 338.3 294.35 336.5
L 293.75 339.9
Q 295.55 341 297.7 341.25
L 298.1 339.7 300.25 339.65 300.8 341.1
Q 303.15 340.65 305 339.15
L 304.2 337.8 305.65 336.2 307.05 336.9
Q 308.4 334.85 308.65 332.55
L 307.15 332.15 307.05 330 308.55 329.45
Q 308.1 327.1 306.6 325.25
L 305.2 326.05 303.6 324.6 304.3 323.15
Q 302.2 321.8 299.95 321.6
L 299.55 323.1 297.4 323.2 296.85 321.7
Q 294.6 322.15 292.65 323.65
L 293.5 325 292 326.6 290.6 325.95
Q 289.25 327.95 289 330.3
L 290.5 330.7 290.6 332 292.1 332.3 292.05 331.7
Q 291.95 328.9 293.85 326.85 Z"/>
</g>

<g id="mcLogoText_0_Layer0_0_MEMBER_1_FILL">
<path fill="#FFFFFF" stroke="none" d="
M 295.1 344.9
L 295.8 345.35 295.45 346.5 294.6 346.5
Q 294.45 347.75 294.85 348.95
L 295.7 348.8 296.25 349.85 295.65 350.45
Q 296.45 351.5 297.55 352
L 298.05 351.3 299.15 351.65 299.15 352.5
Q 300.55 352.65 301.65 352.25
L 301.45 351.45 302.5 350.9 303.1 351.5
Q 304.1 350.7 304.7 349.55
L 304 349.1 304.3 347.95 305.15 347.95
Q 305.35 346.75 304.95 345.5
L 304.1 345.65 303.55 344.6 304.15 344
Q 303.35 342.95 302.25 342.45
L 301.75 343.15 300.65 342.8 300.65 341.95
Q 299.25 341.8 298.15 342.2
L 298.35 343 297.3 343.55 296.7 342.95
Q 295.7 343.75 295.1 344.9
M 296.4 346.15
Q 296.85 344.7 298.2 344 299.5 343.3 300.95 343.75 302.4 344.2 303.1 345.5 303.8 346.85 303.4 348.3 302.95 349.75 301.6 350.45 300.3 351.15 298.85 350.7 297.4 350.25 296.7 348.95 296 347.6 296.4 346.15
M 302.05 344.95
Q 301.1 344.1 299.85 344.1 298.55 344.1 297.65 345.05 296.75 346 296.8 347.3 296.8 348.6 297.75 349.5 298.7 350.35 299.95 350.35 301.25 350.35 302.15 349.4 303.05 348.45 303 347.15 303 345.85 302.05 344.95
M 299.85 344.7
Q 300.9 344.65 301.65 345.4 302.45 346.1 302.45 347.2 302.45 348.25 301.75 349 301 349.75 299.95 349.8 298.9 349.8 298.15 349.05 297.35 348.35 297.35 347.25 297.35 346.2 298.05 345.45 298.8 344.7 299.85 344.7 Z"/>
</g>

<g id="mcLogoText_0_Layer0_0_MEMBER_2_FILL">
<path fill="#FFFFFF" stroke="none" d="
M 265.25 349.05
Q 265.95 348.9 269.5 347.8
L 271.7 350.1 274.95 347.05 263.15 334.7 260.35 351.55 264.75 352.25 265.25 349.05
M 266.1 344.2
L 268.05 346.25 265.6 347.05 266.1 344.2 Z"/>
</g>

<g id="mcLogoText_0_Layer0_0_MEMBER_3_FILL">
<path fill="#FFFFFF" stroke="none" d="
M 293.9 333.65
L 287.55 332.5 284 351.95 290.35 353.1 293.9 333.65 Z"/>
</g>

<g id="mcLogoText_0_Layer0_0_MEMBER_4_FILL">
<path fill="#FFFFFF" stroke="none" d="
M 282.55 336.05
L 278.25 339.9 275.6 334.75 271.55 336.85 274.7 343.1 269.5 347.8 272.55 351.15 276.85 347.3 279.45 352.45 283.55 350.4 280.35 344.15 285.6 339.5 282.55 336.05 Z"/>
</g>

<g id="mcLogoText_0_Layer0_0_MEMBER_5_FILL">
<path fill="#FFFFFF" stroke="none" d="
M 252.85 344.7
L 246.45 343.65
Q 246.2 345.4 246.55 346.7 246.85 348.2 247.6 349.4 248.3 350.5 249.5 351.4 250.7 352.25 252.1 352.45 253.45 352.65 254.85 352.35 256.2 351.95 257.3 351.25 258.35 350.45 259.1 349.3 259.9 348.05 260.1 346.7
L 262.2 333.65 255.85 332.6 253.7 345.65
Q 253.7 345.85 253.5 346 253.3 346.1 253.15 346.05 252.95 346.05 252.85 345.65 252.75 345.25 252.85 344.7 Z"/>
</g>

<g id="mcLogoText_0_Layer0_0_MEMBER_6_FILL">
<path fill="#FFFFFF" stroke="none" d="
M 242.1 332.35
L 241.1 331.95
Q 240.25 333.4 240.25 335
L 241.3 335.2 241.45 336.65 240.45 337.05
Q 240.95 338.65 242 339.8
L 242.85 339.2 244 340.15 243.6 341.15
Q 245.05 341.95 246.65 342
L 246.85 340.95 248.3 340.75 248.7 341.75
Q 250.15 341.4 251.45 340.25
L 250.85 339.35 251.8 338.2 252.8 338.6
Q 253.6 337.15 253.65 335.6
L 252.6 335.4 252.4 333.9 253.4 333.5
Q 253.05 332.05 251.9 330.75
L 251 331.35 249.85 330.45 250.25 329.45
Q 248.85 328.65 247.25 328.55
L 247.05 329.65 245.55 329.8 245.15 328.8
Q 243.55 329.3 242.4 330.35
L 243 331.2 242.1 332.35
M 243.35 332.45
Q 244.55 330.95 246.4 330.75 248.3 330.55 249.8 331.7 251.3 332.85 251.5 334.75 251.75 336.65 250.55 338.15 249.35 339.65 247.45 339.85 245.55 340.05 244.1 338.85 242.6 337.65 242.4 335.8 242.2 333.9 243.35 332.45
M 245.3 331.7
Q 243.8 332.35 243.25 333.9 242.65 335.45 243.35 336.9 244 338.4 245.55 338.95 247.1 339.55 248.6 338.85 250.05 338.2 250.6 336.65 251.2 335.1 250.5 333.65 249.85 332.15 248.3 331.6 246.75 331 245.3 331.7
M 245.6 332.35
Q 246.8 331.8 248.05 332.25 249.3 332.75 249.85 333.95 250.4 335.15 249.95 336.4 249.5 337.65 248.3 338.2 247.05 338.75 245.8 338.3 244.55 337.85 244 336.6 243.45 335.4 243.9 334.15 244.4 332.9 245.6 332.35 Z"/>
</g>
</defs>

<g transform="matrix( 1, 0, 0, 1, 0,0) ">
<g transform="matrix( 4.81024169921875, 0, 0, 4.81024169921875, -1155.65,-1546.95) ">
<use xlink:href="#mcLogoText_0_Layer0_0_MEMBER_0_FILL"/>
</g>

<g transform="matrix( 4.81024169921875, 0, 0, 4.81024169921875, -1155.65,-1546.95) ">
<use xlink:href="#mcLogoText_0_Layer0_0_MEMBER_1_FILL"/>
</g>

<g transform="matrix( 4.81024169921875, 0, 0, 4.81024169921875, -1155.65,-1546.95) ">
<use xlink:href="#mcLogoText_0_Layer0_0_MEMBER_2_FILL"/>
</g>

<g transform="matrix( 4.81024169921875, 0, 0, 4.81024169921875, -1155.65,-1546.95) ">
<use xlink:href="#mcLogoText_0_Layer0_0_MEMBER_3_FILL"/>
</g>

<g transform="matrix( 4.81024169921875, 0, 0, 4.81024169921875, -1155.65,-1546.95) ">
<use xlink:href="#mcLogoText_0_Layer0_0_MEMBER_4_FILL"/>
</g>

<g transform="matrix( 4.81024169921875, 0, 0, 4.81024169921875, -1155.65,-1546.95) ">
<use xlink:href="#mcLogoText_0_Layer0_0_MEMBER_5_FILL"/>
</g>

<g transform="matrix( 4.81024169921875, 0, 0, 4.81024169921875, -1155.65,-1546.95) ">
<use xlink:href="#mcLogoText_0_Layer0_0_MEMBER_6_FILL"/>
</g>
</g>
</svg>
