
<svg xmlns="http://www.w3.org/2000/svg" version="1.1" xmlns:xlink="http://www.w3.org/1999/xlink" preserveAspectRatio="none" x="0px" y="0px" width="300px" height="331px" viewBox="0 0 300 331">
<defs>
<g id="mcLogo_0_Layer0_0_MEMBER_0_FILL">
<path fill="#9DD2BF" stroke="none" d="
M 313.55 188.5
L 316.35 186.85 317.3 181.5 309.35 180.05
Q 310.6 184.75 313.55 188.5
M 316.9 179.45
L 316.75 179.15 310.65 178.05 310.1 178.25 316.9 179.45
M 336.45 163.85
Q 340.65 165.75 342.3 170.1 343.9 174.4 342 178.65 340.1 182.85 335.75 184.45 332 185.85 328.2 184.55 324.5 183.3 322.4 179.95
L 322.35 180 321.8 183.25
Q 324.55 186.3 328.55 187.3 332.65 188.3 336.65 186.8 341.95 184.8 344.25 179.65 346.6 174.5 344.6 169.2 342.6 163.9 337.5 161.55 332.35 159.2 327.05 161.2 322.35 163 319.9 167.35 317.5 171.65 318.4 176.45
L 321 176.9 321.05 176.95
Q 319.9 172.8 321.85 168.95 323.85 165.1 327.9 163.55 332.25 161.95 336.45 163.85
M 350.1 159.55
L 346.9 161.4 343.1 157.95 344.7 154.6
Q 340.1 151.45 334.5 150.85
L 333.55 154.45 328.45 154.7 327.2 151.15
Q 321.65 152.35 317.35 155.75
L 319.25 158.95 315.75 162.75 312.4 161.1
Q 309.3 165.85 308.7 171.35
L 312.3 172.25 312.4 175.35 316.05 176.05 315.95 174.7
Q 315.65 168.1 320.1 163.25 324.6 158.4 331.15 158.1 337.75 157.85 342.6 162.3 347.45 166.75 347.75 173.35 348 179.95 343.55 184.8 339.1 189.65 332.5 189.9 326.1 190.2 321.3 185.95
L 320.55 190.05 320.55 190.1 319.85 194
Q 324.2 196.6 329.15 197.15
L 330.1 193.55 335.2 193.35 336.45 196.85
Q 341.9 195.75 346.3 192.25
L 344.4 189.05 347.9 185.3 351.25 186.9
Q 354.3 182.2 355 176.7
L 351.4 175.75 351.15 170.65 354.65 169.4
Q 353.55 163.9 350.1 159.55 Z"/>
</g>

<g id="mcLogo_0_Layer0_0_MEMBER_1_FILL">
<path fill="#F3B5B7" stroke="none" d="
M 264.25 170.1
Q 259.2 170.1 254.1 169.1
L 253.8 177.75
Q 267.85 180.25 281.7 176.05
L 280.35 167.5
Q 272.65 170.1 264.25 170.1
M 315.55 118.8
Q 315.55 123.85 314.55 128.95
L 323.2 129.25
Q 325.7 115.2 321.5 101.35
L 312.95 102.7
Q 315.55 110.4 315.55 118.8
M 317.05 146.95
L 310.1 141.85
Q 303.95 154.05 292.65 161.5
L 298.55 167.85
Q 310.4 159.55 317.05 146.95
M 236.1 171.6
L 241.2 164.65
Q 229.05 158.45 221.55 147.2
L 215.2 153.1
Q 223.5 164.95 236.1 171.6
M 212.95 118.8
Q 212.95 113.75 213.95 108.65
L 205.35 108.35
Q 202.8 122.55 207 136.25
L 215.55 134.9
Q 212.95 126.95 212.95 118.8
M 218.45 95.75
Q 224.55 83.65 235.85 76.1
L 230 69.75
Q 218.15 78.05 211.45 90.65
L 218.45 95.75
M 287.3 73
Q 299.4 79.05 306.95 90.4
L 313.3 84.55
Q 305 72.6 292.4 66
L 287.3 73
M 274.4 68.5
L 274.7 59.9
Q 260.5 57.35 246.8 61.55
L 248.15 70.1
Q 255.85 67.5 264.25 67.5 269.3 67.5 274.4 68.5 Z"/>
</g>

<g id="mcLogo_0_Layer0_0_MEMBER_2_FILL">
<path fill="#E86394" stroke="none" d="
M 298.7 84.35
Q 284.45 70.1 264.25 70.1 244.1 70.1 229.8 84.35 215.55 98.65 215.55 118.8 215.55 132.3 222.45 143.8 229.15 154.95 240.55 161.35 242.9 161.2 244.8 160.65
L 245.65 162.15 244.2 163.2 245.45 163.75 246.25 163 247.3 164.4 246.2 164.05
Q 251.55 166.2 257.3 167
L 256.4 166.85
Q 257.5 164.1 259.55 161.2 260.55 159.75 261.35 158.85 266.5 159.7 271.65 158.05
L 273.9 160.2
Q 276.4 162.9 277.9 165.55
L 277.25 165.75
Q 292.9 161.45 302.85 148.55 312.95 135.4 312.95 118.8 312.95 98.65 298.7 84.35
M 248.55 77.5
Q 250.3 77.95 251.25 79.5 252.05 80.8 251.85 82.3 251.7 83.75 250.65 84.8
L 252.45 87.8
Q 255.35 86.2 258.7 85.6 267.65 83.9 275.2 89 282.8 94.1 284.5 103.05 285.3 107.35 284.45 111.6 283.6 115.7 281.3 119.25 279.45 122.1 276.8 124.3
L 276.75 124.3 276.05 124.8 276.1 124.85 274.2 126.1
Q 266.7 130.65 258.1 128.75 249.6 126.9 244.7 119.65
L 243.55 117.75
Q 241.9 114.7 241.25 111.35 240 104.75 242.6 98.65 245.15 92.65 250.5 89
L 248.7 86
Q 247.25 86.4 245.9 85.9 244.5 85.35 243.7 84.05 242.75 82.45 243.2 80.7 243.65 78.95 245.2 78 246.8 77.05 248.55 77.5
M 252.65 79.25
Q 251.45 76.9 249 76.2 256.25 73.6 264.25 73.6 273.45 73.6 281.85 77.15 290 80.6 296.25 86.85 302.5 93.1 305.95 101.2 309.5 109.6 309.5 118.8 309.5 122.75 308.8 126.8 307.4 122.3 305.45 119.15
L 305.5 118.8
Q 305.5 110.4 302.25 102.75 299.1 95.35 293.4 89.65 287.7 83.95 280.3 80.85 272.65 77.6 264.25 77.6 258.15 77.6 252.65 79.25
M 232.3 86.85
Q 236.65 82.45 242.1 79.4 241.55 80.6 241.55 81.85 241.55 83.05 242 84.1 238.45 86.35 235.1 89.65 229.4 95.35 226.3 102.75 223.05 110.4 223.05 118.8 223.05 127.2 226.3 134.85 229.4 142.25 235.1 147.95 236.6 149.45 238.25 150.8 237.65 152.9 237.75 155.45 234.9 153.4 232.3 150.8 226.05 144.55 222.6 136.4 219.05 128 219.05 118.8 219.05 109.6 222.6 101.2 226.05 93.1 232.3 86.85
M 239.05 155.75
Q 239 153.85 239.4 151.85 241.7 153.75 244.05 154.7 243.9 155.7 243.9 156.75 241.35 156.6 239.05 155.75
M 239.15 157
L 239.1 156.85
Q 241.4 157.65 244 157.8 244.05 158.65 244.4 159.65 242 160.35 239.75 160.35 239.3 158.75 239.15 157
M 239.65 150.75
Q 240.3 148.55 241.55 146.65 243 149.15 245.2 151.05 244.5 152.35 244.25 153.6 241.75 152.5 239.65 150.75
M 304.85 120.95
Q 305.55 122.2 306.15 123.7 303.45 124.15 301.05 125.25
L 300.3 123.55
Q 302.45 121.95 304.85 120.95
M 295.4 110.85
L 296 110.55
Q 294.45 108.9 292.5 108.95 291.55 108.85 291.45 108.1 291.35 107.4 292 107.25 292.85 107 294.45 107.5 296.6 108.25 297.85 110.15
L 298.45 110.15
Q 297.7 108.15 295.75 107.5 294.95 107.1 295.1 106.35 295.25 105.65 295.9 105.7 296.85 105.75 298.2 106.85 300 108.4 300.4 110.7
L 300.85 110.95
Q 300.85 109.55 299.95 108.45 299.5 107.65 300.05 107.15 300.55 106.65 301.05 107.05 301.65 107.45 302.2 108.85 302.9 110.7 302.45 112.5 303.2 113.65 303.35 115.05 303.4 116.5 302.8 117.8
L 302.65 117.6 298.5 120.6 298.6 120.7 298.45 120.7
Q 297 120.8 295.7 120.15 294.45 119.55 293.65 118.35 292.05 117.85 290.9 116.65 289.95 115.65 289.85 115.05 289.7 114.45 290.35 114.15 291.05 113.85 291.6 114.6 292 115.35 292.8 116
L 292.8 115.85
Q 292.6 113.85 293.95 112.05 292.8 111.6 291.6 111.8 290.7 111.8 290.5 111.1 290.3 110.4 290.9 110.15 291.5 109.9 292.6 110 294.15 110.1 295.4 110.85
M 298.95 121.25
L 303.05 118.3 304.3 120
Q 301.9 120.95 299.75 122.55
L 298.95 121.25
M 302.05 128.25
L 301.5 126.3
Q 304.15 125.1 306.55 124.75 307 126 307.35 127.85 304.55 127.7 302.05 128.25
M 302.45 131.45
Q 302.45 130.4 302.3 129.4 305 128.8 307.5 128.95 307.7 130.55 307.55 132.65 305.1 131.7 302.45 131.45
M 302.05 134.4
Q 302.3 133.6 302.4 132.6 305 132.8 307.4 133.75 307.1 135.6 306.3 137.3 304.55 135.7 302.05 134.4
M 288.45 141.65
Q 288.6 145.25 287.65 148.25 284.7 147.9 281.8 147.15 282.7 145.15 283.25 141.25
L 286.55 141 286.9 141
Q 287.65 141.4 288.45 141.65
M 288.75 148.35
Q 289.75 145.15 289.6 141.95 291.65 142.4 293.6 142 293.95 145.05 293.25 148.1 291.4 148.45 288.75 148.35
M 298.9 146
Q 296.7 147.3 294.4 147.85 295.05 144.9 294.75 141.7 296.25 141.2 297.4 140.4 298.6 143.2 298.9 146
M 303.05 142.5
Q 301.9 143.85 299.9 145.35 299.5 142.3 298.3 139.65 299.2 139 299.9 138.15 301.85 140.2 303.05 142.5
M 300.65 137.25
Q 301.3 136.4 301.65 135.5 304.05 136.7 305.85 138.35 304.95 140.1 303.9 141.45
L 303.8 141.55
Q 302.5 139.15 300.65 137.25
M 261.4 134.4
L 261.1 130.1
Q 264.3 130.4 267.6 129.7
L 267.95 133.9 261.4 134.4
M 256.8 136.1
Q 258.3 135.65 259.6 135.5
L 269.9 134.7 272.75 134.9
Q 275.75 135.35 276.6 136.65 277.5 137.95 274.25 142.5
L 270.8 146.75
Q 265.7 148.45 260.5 147.55 258.45 145.85 256.5 143.85 252.6 139.85 253.25 138.45 253.9 137 256.8 136.1
M 252.1 138.5
Q 251.75 139.3 252.5 140.7 253.05 141.8 253.9 142.6
L 242.65 143.45
Q 242.2 141.5 247.55 139 252.2 136.85 253.5 136.85 252.65 137.4 252.1 138.5
M 249.5 147.1
Q 248.05 145.7 246.95 144
L 254.55 143.45 256.75 145.9
Q 254.3 146.1 253.05 146.25 250.75 146.55 249.5 147.1
M 243.45 144.25
L 245.8 144.1
Q 246.85 145.95 248.5 147.65 246.85 148.65 245.8 150.15 243.65 148.3 242.15 145.75 242.7 145 243.45 144.25
M 277.55 138.85
Q 278.05 137.35 277.6 136.6 276.9 135.6 275.95 135.15 277.2 134.95 282.15 136.4 287.85 138.05 287.65 140.05
L 276.4 140.9
Q 277.1 140.05 277.55 138.85
M 276 141.8
L 282.05 141.35
Q 281.8 144.2 280.6 146.85 277 145.9 274.2 144.45
L 276 141.8
M 261.2 157.3
L 260.6 149.1
Q 265.8 149.95 270.9 148.3
L 271.55 156.5
Q 266.45 158.25 261.2 157.3 Z"/>
</g>

<g id="mcLogo_0_Layer0_0_MEMBER_3_FILL">
<path fill="#CA6397" stroke="none" d="
M 237.4 228.45
L 235.2 228.45 235.2 236.55 237.4 236.55 237.4 233.6 240 233.6 240 236.55 242.15 236.55 242.15 228.45 240 228.45 240 231.45 237.4 231.45 237.4 228.45
M 233.4 230.6
L 233.4 228.45 227 228.45 227 230.6 229.15 230.6 229.15 236.55 231.3 236.55 231.3 230.6 233.4 230.6
M 274 234.65
Q 274.3 234.2 274.45 233.65 274.6 233.15 274.6 232.5 274.6 231.95 274.45 231.4 274.3 230.8 274 230.35 273.8 229.95 273.35 229.5 272.9 229.05 272.5 228.85 271.9 228.5 271.45 228.4
L 270.35 228.25
Q 269.75 228.25 269.2 228.4 268.65 228.55 268.2 228.85 267.95 228.95 267.3 229.5
L 266.65 230.35
Q 266.45 230.7 266.25 231.4 266.1 231.95 266.1 232.5 266.1 233.15 266.25 233.65 266.45 234.35 266.65 234.65
L 267.3 235.5
Q 267.75 235.95 268.2 236.2
L 269.2 236.6
Q 269.75 236.75 270.35 236.75
L 271.45 236.6
Q 271.75 236.55 272.5 236.2 273.1 235.8 273.35 235.5 273.8 235.05 274 234.65
M 269.55 230.6
Q 269.9 230.4 270.35 230.4 271.2 230.4 271.8 231.05 272.45 231.65 272.45 232.5 272.45 232.95 272.25 233.3 272.1 233.7 271.8 234
L 271.15 234.45
Q 270.8 234.6 270.35 234.6 269.95 234.6 269.55 234.45 269.2 234.35 268.85 234 268.55 233.7 268.4 233.3 268.25 232.95 268.25 232.5 268.25 232.1 268.4 231.7 268.6 231.25 268.85 231.05 269.2 230.75 269.55 230.6
M 281.55 228.65
Q 281.15 228.45 280.55 228.45
L 276.45 228.45 276.45 236.55 280.55 236.55
Q 281.15 236.55 281.55 236.35 282 236.2 282.4 235.8 282.7 235.5 282.95 235 283.15 234.4 283.15 234 283.15 233.25 282.65 232.5 283.15 231.75 283.15 231 283.15 230.6 282.95 230 282.7 229.45 282.35 229.2 282.05 228.8 281.55 228.65
M 278.6 230.6
L 280.55 230.6 280.85 230.7 281 231
Q 281 231.15 280.85 231.3 280.8 231.45 280.55 231.45
L 279.25 231.45 279.25 233.6 280.55 233.6 280.85 233.7 281 234 280.85 234.3
Q 280.8 234.4 280.55 234.4
L 278.6 234.4 278.6 230.6
M 246.3 231.45
L 246.3 230.6 250.2 230.6 250.2 228.45 244.1 228.45 244.1 236.55 250.2 236.55 250.2 234.4 246.3 234.4 246.3 233.6 248.05 233.6 248.05 231.45 246.3 231.45
M 259.35 234.8
L 260.55 234.8 262.85 237 264.35 235.45 262.8 233.95 262.85 233.95 262.9 233.85
Q 263.85 232.95 263.85 231.6 263.85 230.3 262.9 229.35 262 228.45 260.7 228.45
L 257.15 228.45 257.15 236.6 259.35 236.6 259.35 234.8
M 261.1 230.7
L 261.4 230.9 261.6 231.25 261.7 231.6 261.6 232 261.4 232.35 261.1 232.55 260.7 232.65 259.35 232.65 259.35 230.6 260.7 230.6 261.1 230.7
M 290.3 228.4
L 289.2 228.25 288.05 228.4
Q 287.5 228.55 287.05 228.85 286.6 229.05 286.15 229.5
L 285.5 230.35
Q 285.2 230.8 285.05 231.4 284.9 231.95 284.9 232.5 284.9 233.15 285.05 233.65 285.2 234.2 285.5 234.65
L 286.15 235.5
Q 286.45 235.85 287.05 236.2
L 288.05 236.6 289.2 236.75 290.3 236.6
Q 290.6 236.55 291.35 236.2 291.95 235.8 292.2 235.5 292.65 235.05 292.85 234.65 293.15 234.2 293.3 233.65 293.45 233.15 293.45 232.5 293.45 231.95 293.3 231.4 293.15 230.8 292.85 230.35 292.65 229.95 292.2 229.5 291.75 229.05 291.35 228.85 290.75 228.5 290.3 228.4
M 287.7 231.05
Q 288 230.75 288.35 230.6 288.7 230.4 289.2 230.4 290.05 230.4 290.65 231.05 291.3 231.7 291.3 232.5 291.3 232.8 291.1 233.3 290.95 233.7 290.65 234
L 290 234.45
Q 289.65 234.6 289.2 234.6 288.75 234.6 288.35 234.45 288 234.3 287.7 234 287.4 233.7 287.25 233.3 287.1 232.95 287.1 232.5 287.1 232.1 287.25 231.7 287.45 231.25 287.7 231.05
M 299.4 230.6
L 301.55 230.6 301.55 228.45 295.15 228.45 295.15 230.6 297.25 230.6 297.25 236.55 299.4 236.55 299.4 230.6 Z"/>
</g>

<g id="mcLogo_0_Layer0_0_MEMBER_4_FILL">
<path fill="#B8D13F" stroke="none" d="
M 346.2 207.15
L 344.25 207.5 342.95 205.1 344.35 203.65
Q 342.65 201.35 339.85 199.95
L 338.75 201.6 336.1 200.8 336.1 198.8
Q 333.1 198.35 330.25 199.35
L 330.65 201.3 328.2 202.6 326.8 201.2
Q 324.4 203 323.1 205.7
L 324.75 206.85 323.95 209.45 321.95 209.45
Q 321.5 212.45 322.5 215.3
L 324.45 214.9 325.75 217.35 324.35 218.75
Q 326.1 221.15 328.85 222.5
L 329.95 220.8 332.6 221.65 332.6 223.65
Q 335.65 224.05 338.45 223.05
L 338.05 221.1 340.5 219.8 341.9 221.25
Q 344.4 219.3 345.6 216.7
L 343.95 215.6 344.75 212.95 346.75 212.95
Q 347.2 209.95 346.2 207.15
M 336.85 203.05
Q 340.25 204.05 341.9 207.2 343.6 210.3 342.55 213.7 341.5 217.1 338.35 218.75 335.25 220.45 331.85 219.4 328.45 218.35 326.8 215.25 325.1 212.1 326.15 208.7 327.2 205.3 330.35 203.65 333.45 202 336.85 203.05
M 339.45 205.9
Q 337.25 203.8 334.2 203.85 331.15 203.9 329.05 206.1 326.95 208.3 327 211.35 327.05 214.4 329.25 216.5 331.45 218.6 334.5 218.55 337.55 218.5 339.65 216.3 341.75 214.1 341.7 211.05 341.65 208 339.45 205.9
M 334.2 205.2
Q 336.7 205.15 338.5 206.9 340.3 208.65 340.35 211.1 340.4 213.6 338.7 215.35 336.95 217.15 334.5 217.2 332 217.25 330.2 215.55 328.4 213.8 328.35 211.35 328.3 208.85 330 207.05 331.7 205.25 334.2 205.2 Z"/>
</g>

<g id="mcLogo_0_Layer0_0_MEMBER_5_FILL">
<path fill="#9E3C6E" stroke="none" d="
M 252.85 215.55
Q 254.3 215.15 258.4 213.9 262.7 212.55 262.75 212.5
L 268 218 275.6 210.8 247.9 181.75 241.25 221.35 251.55 223.05 252.85 215.55
M 259.4 208.95
L 253.6 210.75 254.75 204.1 259.4 208.95 Z"/>
</g>

<g id="mcLogo_0_Layer0_0_MEMBER_6_FILL">
<path fill="#EE98BA" stroke="none" d="
M 320.25 179.25
L 305.25 176.55 296.95 222.35 311.9 225.1 320.25 179.25 Z"/>
</g>

<g id="mcLogo_0_Layer0_0_MEMBER_7_FILL">
<path fill="#CA6397" stroke="none" d="
M 283.35 194
L 277.2 181.9 267.6 186.8 275.05 201.45 262.75 212.5 270 220.5 280.15 211.4 286.25 223.5 295.9 218.7 288.4 203.95 300.7 192.95 293.5 184.95 283.35 194 Z"/>
</g>

<g id="mcLogo_0_Layer0_0_MEMBER_8_FILL">
<path fill="#6A1E45" stroke="none" d="
M 245.65 179.25
L 230.65 176.8 225.65 207.5
Q 225.55 208.1 225.2 208.3 224.8 208.6 224.3 208.5 223.85 208.45 223.6 207.5 223.45 206.5 223.65 205.3
L 208.6 202.85
Q 208 206.55 208.75 210.05 209.4 213.45 211.25 216.35 213.15 219.25 215.8 221.05 218.45 222.95 221.85 223.5 225.1 224.1 228.35 223.25 231.45 222.5 234.05 220.65 236.7 218.7 238.35 216.05 240.1 213.45 240.7 209.95
L 245.65 179.25 Z"/>
</g>

<g id="mcLogo_0_Layer0_0_MEMBER_9_FILL">
<path fill="#FFF487" stroke="none" d="
M 200.45 173.5
L 198.3 176.25 195.95 175.3
Q 194.05 178.7 193.9 182.4
L 196.4 182.85 196.8 186.3 194.45 187.3
Q 195.5 191 198.05 193.8
L 200.1 192.35 202.85 194.5 201.9 196.85
Q 205.25 198.75 209 198.9
L 209.45 196.4 212.9 196.05 213.9 198.35
Q 217.65 197.3 220.35 194.75
L 218.95 192.7 221.1 189.95 223.45 190.9
Q 225.35 187.55 225.5 183.8
L 223 183.35 222.6 179.9 224.95 178.9
Q 223.9 175.15 221.35 172.45
L 219.3 173.85 216.55 171.7 217.5 169.35
Q 214.15 167.45 210.4 167.3
L 209.95 169.8 206.5 170.2 205.5 167.85
Q 201.75 168.9 199.05 171.45
L 200.45 173.5
M 198.95 184.3
Q 198.45 179.85 201.25 176.4 204.05 172.9 208.5 172.4 212.95 171.9 216.4 174.65 219.9 177.45 220.4 181.9 220.95 186.35 218.15 189.85 215.35 193.35 210.9 193.85 206.45 194.35 203 191.55 199.5 188.75 198.95 184.3
M 201.05 179.85
Q 199.7 183.45 201.3 186.95 202.9 190.45 206.45 191.8 210.05 193.15 213.55 191.55 217.05 189.95 218.4 186.35 219.7 182.75 218.1 179.25 216.55 175.75 212.95 174.45 209.35 173.1 205.85 174.7 202.35 176.3 201.05 179.85
M 202.6 180.45
Q 203.7 177.5 206.55 176.2 209.4 174.9 212.35 176 215.3 177.1 216.6 179.95 217.9 182.8 216.8 185.75 215.7 188.7 212.85 190 210 191.3 207.05 190.2 204.1 189.1 202.8 186.25 201.5 183.4 202.6 180.45 Z"/>
</g>

<g id="mcLogo_0_Layer0_0_MEMBER_10_MEMBER_0_FILL">
<path fill="#CA6397" stroke="none" d="
M 206.55 232
L 206.55 233.25 219.75 233.25 219.75 232 206.55 232 Z"/>
</g>

<g id="mcLogo_0_Layer0_0_MEMBER_10_MEMBER_1_FILL">
<path fill="#CA6397" stroke="none" d="
M 308.8 232
L 308.8 233.25 322 233.25 322 232 308.8 232 Z"/>
</g>
</defs>

<g transform="matrix( 1.1202392578125, 0, 0, 1.1201019287109375, 0,0) ">
<g transform="matrix( 1.6624603271484375, 0, 0, 1.6624603271484375, -322.35,-98) ">
<use xlink:href="#mcLogo_0_Layer0_0_MEMBER_0_FILL"/>
</g>

<g transform="matrix( 1.6624603271484375, 0, 0, 1.6624603271484375, -322.35,-98) ">
<use xlink:href="#mcLogo_0_Layer0_0_MEMBER_1_FILL"/>
</g>

<g transform="matrix( 1.6624603271484375, 0, 0, 1.6624603271484375, -322.35,-98) ">
<use xlink:href="#mcLogo_0_Layer0_0_MEMBER_2_FILL"/>
</g>

<g transform="matrix( 1.6624603271484375, 0, 0, 1.6624603271484375, -322.35,-98) ">
<use xlink:href="#mcLogo_0_Layer0_0_MEMBER_3_FILL"/>
</g>

<g transform="matrix( 1.6624603271484375, 0, 0, 1.6624603271484375, -322.35,-98) ">
<use xlink:href="#mcLogo_0_Layer0_0_MEMBER_4_FILL"/>
</g>

<g transform="matrix( 1.6624603271484375, 0, 0, 1.6624603271484375, -322.35,-98) ">
<use xlink:href="#mcLogo_0_Layer0_0_MEMBER_5_FILL"/>
</g>

<g transform="matrix( 1.6624603271484375, 0, 0, 1.6624603271484375, -322.35,-98) ">
<use xlink:href="#mcLogo_0_Layer0_0_MEMBER_6_FILL"/>
</g>

<g transform="matrix( 1.6624603271484375, 0, 0, 1.6624603271484375, -322.35,-98) ">
<use xlink:href="#mcLogo_0_Layer0_0_MEMBER_7_FILL"/>
</g>

<g transform="matrix( 1.6624603271484375, 0, 0, 1.6624603271484375, -322.35,-98) ">
<use xlink:href="#mcLogo_0_Layer0_0_MEMBER_8_FILL"/>
</g>

<g transform="matrix( 1.6624603271484375, 0, 0, 1.6624603271484375, -322.35,-98) ">
<use xlink:href="#mcLogo_0_Layer0_0_MEMBER_9_FILL"/>
</g>

<g transform="matrix( 1.6624603271484375, 0, 0, 1.6624603271484375, -322.35,-98) ">
<use xlink:href="#mcLogo_0_Layer0_0_MEMBER_10_MEMBER_0_FILL"/>
</g>

<g transform="matrix( 1.6624603271484375, 0, 0, 1.6624603271484375, -322.35,-98) ">
<use xlink:href="#mcLogo_0_Layer0_0_MEMBER_10_MEMBER_1_FILL"/>
</g>
</g>
</svg>
